<?xml version="1.0" encoding="utf-8"?>

<!-- The icon can be used freely in both personal and commercial projects with no attribution required, but always appreciated. 
You may NOT sub-license, resell, rent, redistribute or otherwise transfer the icon without express written permission from iconmonstr.com -->

<!DOCTYPE svg PUBLIC "-//W3C//DTD SVG 1.1//EN" "http://www.w3.org/Graphics/SVG/1.1/DTD/svg11.dtd">
<svg version="1.1" xmlns="http://www.w3.org/2000/svg" xmlns:xlink="http://www.w3.org/1999/xlink" x="0px" y="0px"
	 width="512px" height="512px" viewBox="0 0 512 512" enable-background="new 0 0 512 512" xml:space="preserve">
<path id="server-5-icon" d="M382.106,321.217c-38.875,0-70.393,31.515-70.393,70.393c0,38.877,31.518,70.391,70.393,70.391
	c38.877,0,70.395-31.514,70.395-70.391C452.501,352.731,420.983,321.217,382.106,321.217z M365.554,440.717l17.84-41.949
	l-35.334,10.43l55.5-67.414l-16.783,38.043l35.166-10.231L365.554,440.717z M389.022,130.545H79.474L140.521,50h186.707
	L389.022,130.545z M408.249,294.703v-30.744H59.499v87.413h230.67C310.028,306.174,360.022,281.685,408.249,294.703z
	 M82.694,326.836l15.336-38.34h18.525l-15.336,38.34H82.694z M112.722,326.836l15.336-38.34h18.523l-15.336,38.34H112.722z
	 M142.747,326.836l15.334-38.34h18.525l-15.336,38.34H142.747z M172.772,326.836l15.334-38.34h18.523l-15.332,38.34H172.772z
	 M202.8,326.836l15.336-38.34h18.523l-15.338,38.34H202.8z M408.249,153.546H59.499v87.412h348.75V153.546z M82.694,216.423
	l15.336-38.342h18.525l-15.336,38.342H82.694z M112.722,216.423l15.336-38.342h18.523l-15.336,38.342H112.722z M142.747,216.423
	l15.334-38.342h18.525l-15.336,38.342H142.747z M172.772,216.423l15.334-38.342h18.523l-15.332,38.342H172.772z M221.321,216.423
	H202.8l15.336-38.342h18.523L221.321,216.423z M366.843,210.056c-7.068,0-12.805-5.733-12.805-12.805s5.736-12.803,12.805-12.803
	c7.074,0,12.807,5.731,12.807,12.803S373.917,210.056,366.843,210.056z M283.251,374.225H59.499v87.412h250.785
	C287.312,438.082,277.751,405.564,283.251,374.225z M82.694,437.102l15.336-38.34h18.525l-15.336,38.34H82.694z M112.722,437.102
	l15.336-38.34h18.523l-15.336,38.34H112.722z M142.747,437.102l15.334-38.34h18.525l-15.336,38.34H142.747z M172.772,437.102
	l15.334-38.34h18.523l-15.332,38.34H172.772z M221.321,437.102H202.8l15.336-38.34h18.523L221.321,437.102z"/>
</svg>
