<?xml version="1.0" encoding="utf-8"?>

<!-- The icon can be used freely in both personal and commercial projects with no attribution required, but always appreciated. 
You may NOT sub-license, resell, rent, redistribute or otherwise transfer the icon without express written permission from iconmonstr.com -->

<!DOCTYPE svg PUBLIC "-//W3C//DTD SVG 1.1//EN" "http://www.w3.org/Graphics/SVG/1.1/DTD/svg11.dtd">
<svg version="1.1" xmlns="http://www.w3.org/2000/svg" xmlns:xlink="http://www.w3.org/1999/xlink" x="0px" y="0px"
	 width="512px" height="512px" viewBox="0 0 512 512" enable-background="new 0 0 512 512" xml:space="preserve">
<path id="network-3-icon" d="M133.173,182.504c-12.2,2.019-23.588,4.846-34.92,8.54c7.224-64.06,53.202-120.015,119.969-136.444
	c20.414,10.943,39.117,25.081,55.279,41.986c-2.201,2.916-3.582,6.321-3.951,9.952c-38.039,9.875-73.865,29.203-103.448,57.563
	C152.134,157.687,135.639,166.911,133.173,182.504z M273.877,121.327c-36.554,9.425-69.699,27.859-96.778,53.772
	c0.753,1.633,1.179,2.98,1.507,4.356c58.77,1.811,112.961,25.894,153.011,63.183c0.854-0.386,1.48-0.635,2.448-0.958
	c-1.111-38.871-12.632-76.996-33.289-110.017C290.209,133.388,279.643,129.001,273.877,121.327z M286.796,88.023
	c11.764-2.984,24.239,1.969,30.204,11.172c19.413-0.999,38.816,0.443,57.834,4.275c-32.923-37.11-82.146-57.362-132.767-52.846
	C258.626,61.285,273.615,73.851,286.796,88.023z M135.876,197.707c-13.603,2.221-26.23,5.535-38.623,9.955
	c-0.114,17.537,2.678,34.958,8.406,51.949c7.248-21.575,17.518-41.977,30.805-60.924
	C136.262,198.367,136.065,198.039,135.876,197.707z M389.711,123.151c-22.313-6.499-45.789-9.519-69.604-8.599
	c-0.771,3.794-2.669,7.281-5.445,10.127c21.61,35.174,33.763,75.886,34.897,117.239c13.42,5.008,18.906,21.043,11.45,33.854
	c7.265,9.96,13.738,20.523,19.38,31.601C423.513,252.883,425.39,178.941,389.711,123.151z M346.394,287.104
	c-3.744,22.097-10.699,43.735-20.813,64.341c16.614-8.073,31.331-18.816,43.78-31.534c-5.721-12.002-12.445-23.303-20.046-33.83
	C348.444,286.446,347.658,286.752,346.394,287.104z M278.591,388.2h-45.182V422h-33.888v0.464V462h112.957v-39.536V422h-33.888
	V388.2z M303.143,360.319c13.541-22.776,22.982-47.944,27.653-74.271c-12.393-5.445-17.291-20.488-10.583-32.773
	c-38.75-35.719-89.655-56.862-143.144-58.347c-4.976,10.935-17.112,16.593-28.254,13.179
	c-15.612,22.354-27.024,47.506-33.529,74.104C150.483,349.838,229.788,383.308,303.143,360.319z M418.083,422h-83.014v40h83.014V422
	z M176.931,422H93.917v40h83.014V422z"/>
</svg>
