<?xml version="1.0" encoding="utf-8"?>
<!-- Generator: Adobe Illustrator 16.0.3, SVG Export Plug-In . SVG Version: 6.00 Build 0)  -->
<!DOCTYPE svg PUBLIC "-//W3C//DTD SVG 1.1//EN" "http://www.w3.org/Graphics/SVG/1.1/DTD/svg11.dtd">
<svg version="1.1" id="Layer_1" xmlns="http://www.w3.org/2000/svg" xmlns:xlink="http://www.w3.org/1999/xlink" x="0px" y="0px"
	 width="512px" height="512px" viewBox="0 0 512 512" enable-background="new 0 0 512 512" xml:space="preserve">
<path id="share-3-icon" d="M456.363,217.15l-53.111,98.847l-13.448-32.978C318.75,319.965,297.6,375.414,293.297,462h-71.764
	c5.17-110.042,34.897-192.984,141.101-245.604l-13.587-33.318L456.363,217.15z M226.917,303.48
	c3.346-6.437,6.94-12.672,10.786-18.713c-20.825-26.61-49.125-49.452-87.312-68.373l13.588-33.318L55.637,216.125l54.137,99.872
	l13.448-32.978c41.252,21.448,65.68,49.139,79.759,85.533C208.838,344.46,216.756,323.023,226.917,303.48z"/>
<g>
	<path d="M291.996,238.696c0.69,0.453,1.513,0.728,2.411,0.728c1.229,0,2.317-0.501,3.111-1.305
		c0.775-0.785,1.258-1.872,1.258-3.073v-42.893c0-6.808-3.471-12.794-8.737-16.273l-18.562-12.614l14.014-14.506
		c0.028-0.028,0.057-0.047,0.076-0.066c0.775-0.794,1.257-1.873,1.257-3.064c0,0,0.01-64.849,0.01-64.858
		c0-1.39-1.116-2.516-2.496-2.534h-56.124c-1.39,0.019-2.501,1.144-2.501,2.534c0,0.009,0.015,64.858,0.015,64.858
		c0.004,1.191,0.477,2.27,1.252,3.064c0.02,0.019,0.053,0.038,0.076,0.066l14.009,14.506l-18.562,12.614
		c-5.252,3.479-8.732,9.465-8.732,16.273v42.893c0,1.201,0.482,2.288,1.257,3.073c0.79,0.804,1.896,1.305,3.121,1.305
		c0.889,0,1.711-0.274,2.402-0.728l24.269-16.482c1.399-0.955,2.384-2.288,2.384-4.038v-17.55c0-1.38,1.125-2.506,2.515-2.506
		s2.516,1.125,2.516,2.506v34.959c0,2.231,1.815,4.047,4.037,4.047c2.232,0,4.04-1.815,4.04-4.047v-18.392L291.996,238.696z"/>
	<path d="M228.601,72.431h55.329c1.4,0,2.535-1.125,2.535-2.515c0-0.019-0.01-0.038-0.01-0.057l0.01-0.01
		c-1.986-23.593-12.076-44.869-27.482-61.02c-0.661-0.747-1.636-1.22-2.723-1.22c-1.068,0-2.043,0.473-2.705,1.229
		c-15.403,16.15-25.488,37.417-27.469,61.02l0.009,0.009c0,0.009-0.009,0.028-0.009,0.047
		C226.086,71.306,227.211,72.431,228.601,72.431z"/>
</g>
</svg>
