<?xml version="1.0" encoding="utf-8"?>
<!-- Generator: Adobe Illustrator 16.0.3, SVG Export Plug-In . SVG Version: 6.00 Build 0)  -->
<!DOCTYPE svg PUBLIC "-//W3C//DTD SVG 1.1//EN" "http://www.w3.org/Graphics/SVG/1.1/DTD/svg11.dtd">
<svg version="1.1" id="Layer_1" xmlns="http://www.w3.org/2000/svg" xmlns:xlink="http://www.w3.org/1999/xlink" x="0px" y="0px"
	 width="512px" height="512px" viewBox="0 0 512 512" enable-background="new 0 0 512 512" xml:space="preserve">
<path id="map-2-icon" d="M352.475,312.059c-7.61,0-15.009-1.526-21.986-4.541l8.196-18.99c4.376,1.89,9.016,2.847,13.79,2.847
	c3.912,0,7.767-0.649,11.452-1.937l6.804,19.533C364.851,311.02,358.708,312.059,352.475,312.059z M160.743,311.672
	c-6.571,0-13.026-1.152-19.186-3.424l7.152-19.406c3.862,1.424,7.912,2.145,12.033,2.145c4.562,0,9.011-0.877,13.223-2.604
	l7.855,19.136C175.105,310.273,168.013,311.672,160.743,311.672z M312.95,297.92l-29.136-16.592l10.234-17.975l29.137,16.592
	L312.95,297.92z M199.626,297.574l-10.633-17.742l28.761-17.236l10.633,17.744L199.626,297.574z M268.402,272.852
	c-4.266-1.781-8.775-2.686-13.406-2.686c-4.053,0.002-8.039,0.701-11.845,2.078l-7.037-19.451c6.069-2.195,12.421-3.31,18.88-3.311
	c7.383,0,14.572,1.44,21.378,4.279L268.402,272.852z M397.055,269.982c-9.389,0-17,7.61-17,17c0,9.389,7.611,17,17,17
	c9.39,0,17-7.611,17-17C414.055,277.593,406.443,269.982,397.055,269.982z M115.055,269.982c-9.389,0-17,7.61-17,17
	c0,9.389,7.611,17,17,17c9.389,0,17-7.611,17-17C132.055,277.593,124.443,269.982,115.055,269.982z M462,115.305
	c0-35.98-29.171-65.152-65.152-65.152c-35.982,0-65.154,29.172-65.154,65.152c0,53.506,51.244,59.164,65.154,140.542
	C410.758,174.467,462,168.811,462,115.305z M431.95,238.541v143.451l-74.962,40.703v-90.213h-15.023v88.571l-81.806-52.909v-75.412
	h-14.328v75.412l-79.801,52.909v-88.571h-15.027v90.213L80.05,381.992V155.06l70.953,37.941v75.981h15.027V193.69l79.801-41.385
	v78.927h14.328v-78.927l70.951,35.894c-10.294-12.968-21.007-27.419-26.202-47.19L252.995,114.6l-93.811,48.743L50,105.243V399.52
	l109.185,62.328l93.811-62.319l95.813,62.319L462,399.52V188.932c-0.664,0.834-1.326,1.664-1.983,2.487
	C449.235,204.918,438.911,217.856,431.95,238.541z"/>
<path fill="#FFFFFF" d="M421.645,125.24h-12.403v13.186c0,6.452-5.27,11.75-11.753,11.75c-6.485,0-11.708-5.266-11.729-11.75v-13.22
	l-13.208,0.034c-6.485,0-11.73-5.267-11.73-11.74c0-6.496,5.245-11.74,11.73-11.74h13.229l-0.021-12.414
	c0.021-6.496,5.243-11.74,11.729-11.74c6.483,0,11.753,5.245,11.753,11.74v12.414h12.403c6.485,0,11.729,5.245,11.729,11.74
	C433.373,119.963,428.13,125.24,421.645,125.24z"/>
</svg>
